<?xml version="1.0" standalone="no"?>
<!DOCTYPE svg PUBLIC "-//W3C//DTD SVG 20010904//EN"
 "http://www.w3.org/TR/2001/REC-SVG-20010904/DTD/svg10.dtd">
<svg version="1.0" xmlns="http://www.w3.org/2000/svg"
 width="410.000000pt" height="410.000000pt" viewBox="0 0 410.000000 410.000000"
 preserveAspectRatio="xMidYMid meet">
<metadata>
Created by potrace 1.11, written by Peter Selinger 2001-2013
</metadata>
<g transform="translate(0.000000,410.000000) scale(0.100000,-0.100000)"
fill="#000000" stroke="none">
<path d="M1889 4046 c-2 -2 -35 -7 -74 -11 -93 -9 -252 -41 -350 -72 -167 -52
-404 -162 -492 -229 -17 -13 -34 -24 -38 -24 -13 0 -145 -105 -236 -188 -289
-264 -504 -628 -595 -1009 -18 -80 -20 -87 -38 -218 -19 -131 -14 -437 8 -560
83 -456 279 -828 598 -1133 305 -292 736 -494 1148 -539 97 -10 375 -10 465 0
360 42 738 202 1025 434 151 123 300 288 413 458 139 210 254 497 293 735 3
19 7 37 9 40 10 16 20 188 19 330 0 154 -3 202 -19 305 -6 38 -8 51 -20 113
-40 200 -157 477 -285 670 -232 353 -577 628 -973 776 -103 38 -298 90 -382
101 -27 4 -61 9 -75 12 -30 6 -395 14 -401 9z"/>
</g>
</svg>
